<svg width="96" height="96" viewBox="0 0 480 480" fill="none" xmlns="http://www.w3.org/2000/svg">
<path d="M46.1 395.589C42.7817 396.547 40.3684 395.829 38.86 393.434C37.3517 391.757 36.2959 389.722 35.6925 387.327C35.6925 386.369 35.5417 385.411 35.24 384.453C35.24 383.734 35.24 382.896 35.24 381.938C34.9384 381.459 34.7875 380.98 34.7875 380.501C35.0892 378.585 35.24 376.789 35.24 375.112C35.24 373.436 35.3909 371.759 35.6925 370.083C35.6925 366.73 35.6925 363.257 35.6925 359.664C35.9942 356.311 35.9942 352.839 35.6925 349.246C35.6925 346.372 34.6367 343.259 32.525 339.906C30.715 336.792 29.3575 333.319 28.4525 329.487C28.1508 328.29 28 327.212 28 326.254C28 325.296 28 324.338 28 323.38C28.6033 320.746 29.0558 318.111 29.3575 315.477C29.6592 312.603 29.9608 309.848 30.2625 307.214C30.8658 304.579 31.1675 301.945 31.1675 299.31C31.4692 296.676 31.7708 294.161 32.0725 291.766C32.3742 289.132 32.6759 286.617 32.9775 284.222C33.5809 281.587 33.7317 278.953 33.43 276.318C34.0333 273.684 34.335 271.169 34.335 268.774C34.6367 266.14 34.9384 263.625 35.24 261.23C35.8434 259.314 35.9942 257.518 35.6925 255.841C35.6925 253.925 35.5417 252.129 35.24 250.452C34.9384 249.255 34.7875 248.297 34.7875 247.578C35.0892 246.62 35.24 245.662 35.24 244.704C35.5417 243.507 35.6925 242.309 35.6925 241.112C35.6925 239.675 35.8434 238.477 36.145 237.519V223.509C35.8434 220.395 35.6925 217.401 35.6925 214.527C35.9942 211.414 36.145 208.3 36.145 205.187C35.8434 202.792 35.6925 200.397 35.6925 198.002C35.9942 195.367 36.2959 192.853 36.5975 190.458C36.8992 189.739 37.05 189.021 37.05 188.302C37.05 187.584 37.05 186.985 37.05 186.506V174.291C37.05 172.854 37.2009 171.777 37.5025 171.058V166.388C36.8992 165.669 36.8992 164.711 37.5025 163.514C38.1059 161.358 38.1059 159.203 37.5025 157.047C37.2009 156.568 37.05 156.089 37.05 155.61C37.3517 154.892 37.5025 154.173 37.5025 153.455C37.5025 152.257 37.5025 151.18 37.5025 150.222C37.8042 149.024 37.955 147.827 37.955 146.629C37.955 145.671 37.955 144.713 37.955 143.755C38.2567 142.558 38.5584 141.48 38.86 140.522V139.085C38.86 137.169 39.0109 135.253 39.3125 133.337C39.6142 131.181 39.9159 129.265 40.2175 127.589L42.9325 113.578C43.5359 111.183 44.1392 108.908 44.7425 106.752C45.6475 104.597 46.7034 102.442 47.9101 100.286C49.7201 95.975 53.0384 92.0232 57.8651 88.4307C59.3734 87.4727 60.8818 86.6345 62.3901 85.916C64.2001 85.1975 66.1609 84.8382 68.2726 84.8382C68.5743 84.5987 69.0268 84.479 69.6301 84.479C71.7418 84 73.7026 83.8803 75.5126 84.1197C77.3226 84.3592 79.1327 84.7185 80.9427 85.1975C85.166 85.916 88.3335 87.7122 90.4452 90.5862C91.9535 92.2627 92.7077 93.8195 92.7077 95.2565C92.7077 96.454 92.8585 97.412 93.1602 98.1305C94.0652 101.244 94.3669 104.118 94.0652 106.752C94.0652 107.71 94.0652 108.668 94.0652 109.626C94.3669 110.584 94.6685 111.662 94.9702 112.86C95.5735 114.057 95.8752 115.374 95.8752 116.811C95.8752 118.009 95.8752 119.206 95.8752 120.404C95.8752 122.08 95.7243 123.757 95.4227 125.433C95.121 126.87 94.8194 128.427 94.5177 130.104C94.216 131.062 93.9143 132.139 93.6127 133.337C93.6127 134.295 93.311 135.373 92.7077 136.57C92.406 138.247 91.9535 139.923 91.3502 141.6C91.0485 143.276 90.7468 144.953 90.4452 146.629V148.066C89.8418 150.461 89.3893 152.976 89.0877 155.61C88.786 158.005 88.3335 160.4 87.7302 162.795C87.4285 163.514 87.2777 164.232 87.2777 164.951C87.2777 165.669 87.2777 166.268 87.2777 166.747C87.2777 167.466 87.2777 168.184 87.2777 168.903C87.2777 169.621 87.1268 170.34 86.8252 171.058C86.5235 172.495 86.3727 173.932 86.3727 175.369C86.3727 176.806 86.2218 178.363 85.9202 180.039C85.9202 180.279 85.9202 180.399 85.9202 180.399C86.2218 180.399 86.3727 180.518 86.3727 180.758C86.3727 180.997 86.5235 181.237 86.8252 181.476C87.4285 181.716 87.881 181.716 88.1827 181.476C89.3893 180.997 90.4452 180.399 91.3502 179.68C94.6685 177.525 98.1377 175.369 101.758 173.214C105.378 171.058 108.998 168.903 112.618 166.747C115.936 164.831 119.254 162.915 122.573 160.999C125.891 159.083 129.209 157.167 132.528 155.251C132.829 155.251 133.131 155.131 133.433 154.892C136.449 152.976 139.315 151.06 142.03 149.144C145.047 147.228 147.913 145.312 150.628 143.396C153.946 141.001 157.114 138.606 160.13 136.211C163.449 133.816 166.465 131.301 169.18 128.667C169.784 128.188 170.387 127.709 170.99 127.23C171.594 126.751 172.197 126.272 172.8 125.793L187.733 112.86C190.146 110.704 193.314 108.429 197.235 106.034C198.744 105.076 200.403 104.477 202.213 104.238C202.816 104.238 203.269 104.238 203.57 104.238C203.872 103.998 204.174 103.998 204.475 104.238C205.984 104.238 207.341 104.357 208.548 104.597C209.755 104.597 210.961 104.717 212.168 104.956C213.073 105.196 214.431 105.315 216.241 105.315C217.749 104.836 218.805 105.196 219.408 106.393C219.408 106.633 219.71 106.752 220.313 106.752C220.615 106.752 221.369 106.513 222.576 106.034C223.481 106.034 223.933 106.273 223.933 106.752C224.838 108.189 226.196 109.267 228.006 109.986C228.006 110.225 228.006 110.345 228.006 110.345C228.307 110.345 228.458 110.345 228.458 110.345V111.423C228.458 112.62 229.061 113.339 230.268 113.578C230.57 113.578 230.721 113.698 230.721 113.937C231.022 113.937 231.173 113.937 231.173 113.937C231.776 114.177 232.38 114.776 232.983 115.734C232.983 117.41 233.436 119.206 234.341 121.122C236.151 125.194 236 129.146 233.888 132.978C231.776 137.289 228.76 141.48 224.838 145.551L213.526 157.407C212.319 158.604 210.961 159.802 209.453 160.999C207.945 162.197 206.436 163.274 204.928 164.232C203.42 165.43 202.364 166.388 201.76 167.106C201.157 167.585 200.554 168.064 199.95 168.543C199.347 169.022 198.744 169.501 198.14 169.98C196.632 171.657 194.822 172.974 192.71 173.932C191.202 174.89 189.543 175.848 187.733 176.806C185.923 177.525 184.264 178.483 182.755 179.68C181.247 180.638 179.437 181.476 177.325 182.195C175.515 182.674 173.705 183.153 171.895 183.632C170.387 184.35 168.577 184.47 166.465 183.991H166.013C162.091 183.033 158.019 183.632 153.795 185.787C152.89 186.266 151.835 186.745 150.628 187.224C149.723 187.703 148.667 188.182 147.46 188.661C145.349 190.098 142.935 191.416 140.22 192.613C139.014 193.092 137.958 193.691 137.053 194.409C136.148 194.888 135.243 195.367 134.338 195.846C131.924 197.283 129.36 198.72 126.645 200.157C123.93 201.355 121.366 202.672 118.953 204.109L109.903 208.42C108.998 208.899 107.942 209.498 106.735 210.216C105.83 210.695 104.774 211.294 103.568 212.013C102.964 212.492 102.964 212.971 103.568 213.45L108.998 216.683C112.919 218.359 116.69 220.275 120.31 222.431C123.93 224.347 127.55 226.383 131.17 228.538C134.489 230.454 137.656 232.49 140.673 234.645C143.991 236.561 147.309 238.477 150.628 240.393C151.231 240.633 151.835 240.992 152.438 241.471C153.343 241.95 153.946 242.429 154.248 242.908C157.566 245.064 160.583 247.219 163.298 249.375C166.315 251.291 169.331 253.326 172.348 255.482C177.476 259.314 182.755 263.026 188.185 266.619C193.615 269.972 198.744 273.684 203.57 277.755L207.643 280.989C209.453 282.665 211.263 284.222 213.073 285.659C215.185 286.856 217.296 288.174 219.408 289.611C221.218 290.329 222.576 291.287 223.481 292.485L224.838 293.562C226.95 295.239 228.307 297.035 228.911 298.951C229.514 300.867 229.665 303.023 229.363 305.418L228.911 307.932C229.212 309.609 228.609 310.926 227.101 311.884C226.196 312.124 225.743 313.082 225.743 314.758C225.743 315.716 225.14 316.195 223.933 316.195C222.726 316.435 221.671 316.914 220.766 317.632C218.654 319.069 216.09 320.147 213.073 320.865L209.453 321.943C208.246 322.422 207.341 322.542 206.738 322.302C205.531 321.823 204.174 321.344 202.665 320.865C201.157 320.386 199.649 320.027 198.14 319.788C197.537 319.548 196.632 318.949 195.425 317.991C193.917 316.794 192.409 315.596 190.9 314.399C189.392 312.962 187.884 311.525 186.375 310.088C184.264 308.172 182.001 306.256 179.588 304.34C177.175 302.424 174.761 300.628 172.348 298.951L157.868 289.251C154.55 286.617 151.08 284.222 147.46 282.066C143.84 279.911 140.069 277.636 136.148 275.241C135.544 274.762 134.187 274.283 132.075 273.804C131.17 273.804 130.265 273.684 129.36 273.444C128.455 272.965 127.55 272.606 126.645 272.367C124.534 271.648 122.422 270.93 120.31 270.211C118.5 269.493 116.539 268.654 114.428 267.696C112.618 266.738 110.808 265.78 108.998 264.822C107.188 263.864 105.378 262.906 103.568 261.948C101.456 260.511 99.0427 259.194 96.3277 257.997C93.9144 256.56 91.501 255.242 89.0877 254.045C88.786 253.805 88.3335 253.686 87.7302 253.686C87.4285 253.686 86.976 253.566 86.3727 253.326C85.166 252.847 84.261 253.207 83.6576 254.404C83.0543 254.883 82.451 255.841 81.8476 257.278L80.4901 263.026C80.1885 265.182 79.736 267.457 79.1327 269.852C78.831 272.007 78.5293 274.163 78.2276 276.318C77.926 277.995 77.6243 279.671 77.3226 281.348C77.021 282.785 76.7193 284.222 76.4176 285.659C76.116 287.096 75.8143 288.533 75.5126 289.97C75.211 291.407 74.7585 292.844 74.1551 294.281C73.8535 295.239 73.7026 296.317 73.7026 297.514C73.7026 298.472 73.7026 299.55 73.7026 300.747V312.603C73.7026 315.477 73.401 318.351 72.7976 321.225C72.1943 323.859 71.591 326.494 70.9876 329.128C70.0826 333.918 67.8201 337.87 64.2001 340.983C62.0884 343.378 60.5801 346.133 59.6751 349.246C58.4684 353.557 57.5634 358.108 56.9601 362.898C56.6584 363.856 56.5076 364.814 56.5076 365.772C56.5076 366.969 56.3567 368.167 56.0551 369.364C55.7534 370.322 55.6026 371.4 55.6026 372.597C55.6026 374.034 55.4517 375.352 55.1501 376.549C54.8484 378.465 54.5467 380.381 54.2451 382.297C54.2451 384.453 53.9434 386.488 53.3401 388.404C53.0384 390.081 52.1334 391.638 50.6251 393.075C49.4184 394.272 47.9101 395.11 46.1 395.589Z" fill="#7A3838"/>
<path d="M287.561 395.771C285.885 396.153 284.544 396.057 283.538 395.484C279.85 394.528 277.503 392.903 276.498 390.609V390.036C276.162 388.315 275.827 386.595 275.492 384.874C275.157 383.154 274.821 381.529 274.486 380C274.486 379.617 274.318 379.139 273.983 378.566C273.983 378.183 273.983 377.801 273.983 377.419C273.648 376.845 273.48 376.272 273.48 375.698C273.48 375.125 273.48 374.551 273.48 373.978C273.48 372.448 273.145 371.11 272.474 369.963C271.804 368.816 271.133 367.669 270.463 366.522C269.792 365.758 269.122 365.28 268.451 365.089C267.11 364.133 266.105 363.081 265.434 361.934C264.764 360.979 263.925 359.927 262.92 358.78V358.493C261.243 355.817 260.238 354.097 259.902 353.332C259.567 352.376 259.399 350.56 259.399 347.884V344.156C259.399 342.244 260.405 340.715 262.417 339.568C262.752 339.186 263.087 338.803 263.422 338.421C264.093 338.039 264.596 337.656 264.931 337.274C265.602 336.127 265.602 335.267 264.931 334.693C263.59 333.164 262.584 331.635 261.914 330.105C261.243 328.385 260.573 326.665 259.902 324.944V321.79C260.238 320.643 260.405 319.591 260.405 318.636C260.74 317.489 261.076 316.342 261.411 315.195C262.081 313.474 262.081 311.562 261.411 309.46C260.74 308.313 260.405 307.452 260.405 306.879C260.07 306.305 259.735 305.732 259.399 305.158C259.399 304.585 259.399 304.011 259.399 303.438C259.399 301.144 258.896 299.041 257.891 297.13C257.22 295.983 256.885 295.027 256.885 294.262C256.885 291.203 256.55 288.24 255.879 285.373C255.209 282.314 254.538 279.256 253.868 276.197C253.868 275.815 253.7 275.623 253.365 275.623C253.365 275.432 253.365 275.241 253.365 275.05C253.365 273.521 253.029 271.991 252.359 270.462C251.688 268.742 251.018 267.212 250.347 265.874C250.012 265.492 249.845 265.014 249.845 264.44C249.845 263.867 249.677 263.389 249.342 263.007C249.006 261.668 248.671 260.426 248.336 259.279C248.336 258.132 248.001 256.889 247.33 255.551V254.404C246.995 252.301 246.324 250.294 245.318 248.382C244.648 246.471 243.977 244.559 243.307 242.648C243.307 241.883 243.139 241.118 242.804 240.354C242.804 239.589 242.636 238.824 242.301 238.06L240.793 234.905C240.457 234.141 240.122 233.376 239.787 232.611C239.787 231.656 239.619 230.795 239.284 230.031C238.949 228.693 238.781 227.45 238.781 226.303C238.781 224.965 238.613 223.627 238.278 222.288C237.943 220.95 237.608 219.708 237.272 218.561C237.272 217.414 236.937 216.267 236.267 215.12C235.931 213.59 235.596 212.061 235.261 210.532C235.261 208.811 234.925 207.186 234.255 205.657C233.249 202.599 231.238 199.827 228.22 197.341C221.85 191.989 219.168 185.967 220.174 179.276C220.845 177.174 222.353 175.262 224.7 173.541C225.035 173.159 225.873 172.586 227.215 171.821C229.561 170.1 232.243 168.858 235.261 168.093C238.613 167.137 242.134 166.564 245.821 166.373C251.521 165.799 256.717 164.939 261.411 163.792C270.463 162.263 279.515 161.116 288.567 160.351C294.602 159.778 300.636 159.491 306.671 159.491H311.7C314.382 159.108 317.064 158.917 319.746 158.917C322.763 158.917 325.613 158.917 328.295 158.917H332.821C334.833 158.917 336.509 158.535 337.85 157.77L343.885 155.763C344.89 155.381 345.896 155.381 346.902 155.763C347.908 156.145 348.914 156.432 349.919 156.623C351.26 156.815 352.434 157.101 353.44 157.484C355.116 157.866 356.625 158.248 357.966 158.631C359.307 159.013 360.648 159.395 361.989 159.778C362.659 160.16 363.497 160.447 364.503 160.638C365.509 160.829 366.515 161.02 367.52 161.211L377.075 162.358C379.757 162.549 382.104 162.932 384.116 163.505C386.463 163.888 388.809 164.366 391.156 164.939C393.838 165.513 396.185 166.373 398.197 167.52C400.208 168.476 402.22 169.623 404.231 170.961C408.925 173.446 411.942 176.6 413.283 180.423C413.619 181.953 414.457 183.769 415.798 185.872C416.468 187.21 416.804 188.548 416.804 189.886C416.804 191.224 416.971 192.658 417.306 194.187C417.306 194.187 417.306 194.665 417.306 195.621C416.971 197.724 416.468 199.922 415.798 202.216C415.127 204.319 414.289 206.422 413.283 208.525C412.278 210.436 411.104 212.443 409.763 214.546C408.757 216.649 407.416 218.656 405.74 220.568C403.728 223.435 400.879 226.207 397.191 228.884C394.844 230.604 392.497 232.42 390.15 234.332C388.139 236.052 385.792 237.773 383.11 239.493C381.769 240.258 380.428 241.118 379.087 242.074C377.746 242.839 376.405 243.603 375.064 244.368L369.029 247.809V248.382C369.029 248.765 369.364 248.956 370.035 248.956H377.578C382.272 249.147 386.965 249.529 391.659 250.103C396.353 250.485 400.879 251.059 405.237 251.823C406.243 252.015 407.081 252.206 407.752 252.397C408.757 252.588 409.763 252.875 410.769 253.257L416.804 255.264C418.815 256.029 420.659 256.794 422.335 257.558C424.012 258.323 425.185 259.47 425.856 260.999C426.526 261.955 427.364 262.911 428.37 263.867C430.046 265.587 431.555 267.403 432.896 269.315C434.237 271.036 435.578 272.852 436.919 274.763C437.59 275.528 438.093 276.293 438.428 277.057C439.098 277.631 439.601 278.3 439.936 279.064C441.613 281.741 443.289 284.417 444.965 287.093C446.642 289.77 447.983 292.542 448.988 295.409L450.497 302.578C451.168 303.725 451.168 304.967 450.497 306.305C450.162 307.452 449.827 308.599 449.491 309.746C449.156 310.702 448.821 311.754 448.486 312.901C447.48 315.386 445.971 317.775 443.96 320.069C442.954 321.216 441.613 322.268 439.936 323.224C435.578 326.282 431.052 328.672 426.358 330.392C424.012 331.157 421.665 332.017 419.318 332.973C417.306 333.929 414.96 334.885 412.278 335.84C407.249 337.561 401.549 339.377 395.179 341.289C393.503 341.671 391.659 342.149 389.648 342.722C387.971 343.296 386.295 343.774 384.619 344.156C379.255 345.494 374.058 346.832 369.029 348.171C364 349.509 358.971 350.751 353.942 351.898C348.578 353.045 343.382 354.192 338.353 355.339C333.324 356.486 327.96 357.538 322.26 358.493C320.919 358.685 319.578 358.876 318.237 359.067C317.232 359.258 316.058 359.449 314.717 359.64C308.682 360.214 303.821 362.03 300.133 365.089C298.792 365.853 298.122 366.809 298.122 367.956C297.787 368.721 297.451 369.39 297.116 369.963C297.116 370.728 297.116 371.493 297.116 372.257C296.781 372.831 296.613 373.595 296.613 374.551V384.587C296.613 385.543 296.613 386.499 296.613 387.455C296.613 388.602 296.278 389.653 295.607 390.609C294.937 392.712 292.255 394.432 287.561 395.771ZM299.128 245.228C299.463 245.419 299.63 245.515 299.63 245.515C299.63 245.324 299.798 245.228 300.133 245.228C300.469 245.037 300.636 244.942 300.636 244.942C300.972 244.942 301.139 244.942 301.139 244.942C302.815 245.133 304.492 244.942 306.168 244.368C307.844 243.603 309.521 242.934 311.197 242.361C313.208 241.596 315.22 240.831 317.232 240.067C320.249 238.92 323.099 237.677 325.781 236.339C328.798 234.81 331.648 233.28 334.33 231.751C338.353 229.266 342.208 226.781 345.896 224.296C349.584 221.619 352.937 218.848 355.954 215.98C357.63 214.26 359.307 212.635 360.983 211.105C362.659 209.385 364.168 207.569 365.509 205.657C367.185 203.172 368.359 200.305 369.029 197.055C369.7 195.143 369.532 193.423 368.526 191.893C367.52 190.364 366.012 189.313 364 188.739C357.966 187.21 352.266 186.445 346.902 186.445C343.549 186.445 340.364 186.445 337.347 186.445C334.33 186.445 331.312 186.541 328.295 186.732C325.613 186.923 322.931 187.114 320.249 187.305C317.567 187.496 314.885 187.783 312.203 188.166C309.856 188.548 307.341 189.026 304.659 189.599C302.313 189.982 299.798 190.364 297.116 190.746C293.428 191.32 291.081 192.562 290.076 194.474C289.405 195.047 289.07 195.908 289.07 197.055V201.643C288.735 203.554 288.735 205.466 289.07 207.378C289.405 209.289 289.74 211.201 290.076 213.113L290.578 213.399C290.243 214.737 290.243 216.076 290.578 217.414C291.249 218.752 291.752 220.186 292.087 221.715C292.087 222.288 292.59 222.766 293.596 223.149C294.937 223.531 295.104 224.296 294.099 225.443C294.099 225.443 293.931 225.538 293.596 225.729C293.596 225.729 293.763 225.825 294.099 226.016C294.769 226.207 294.937 226.59 294.602 227.163C294.266 227.546 294.099 227.928 294.099 228.31C294.099 229.839 294.266 230.891 294.602 231.464C294.937 231.847 295.104 232.325 295.104 232.898C295.104 233.663 295.272 234.523 295.607 235.479C295.943 236.244 296.278 237.008 296.613 237.773C296.613 238.155 296.948 238.251 297.619 238.06C297.954 237.868 298.457 237.773 299.128 237.773C299.463 237.773 299.63 238.06 299.63 238.633V239.493C297.954 240.831 297.619 242.265 298.625 243.795V244.942C298.96 244.942 299.128 245.037 299.128 245.228ZM308.18 332.686C309.185 332.686 310.191 332.686 311.197 332.686C312.203 332.686 313.376 332.591 314.717 332.399C320.752 331.826 327.122 330.775 333.827 329.245L353.44 324.084C358.804 322.554 364 321.121 369.029 319.783C374.058 318.253 379.255 316.82 384.619 315.481C390.318 313.761 395.515 311.467 400.208 308.599C403.226 306.879 404.734 304.776 404.734 302.291V300.857C404.399 300.475 404.231 300.188 404.231 299.997C404.231 299.615 404.064 299.232 403.728 298.85C402.723 295.791 401.214 292.924 399.202 290.248C397.526 287.38 395.682 284.513 393.671 281.645C393.335 280.881 392.833 280.211 392.162 279.638C391.491 278.873 390.821 278.109 390.15 277.344C389.145 276.197 387.804 275.528 386.127 275.337C383.11 274.763 380.26 274.476 377.578 274.476H369.532C360.48 274.285 351.26 274.572 341.873 275.337C332.486 276.101 322.931 277.248 313.208 278.778L309.688 279.638C309.353 279.829 309.018 279.925 308.682 279.925C308.682 279.925 308.515 280.02 308.18 280.211C307.174 280.785 307.006 281.358 307.677 281.932L308.682 282.505C309.688 283.079 309.856 283.652 309.185 284.226C308.515 284.799 308.18 285.564 308.18 286.52C308.18 287.285 308.18 288.049 308.18 288.814C308.18 289.387 308.347 290.056 308.682 290.821C309.018 291.586 309.185 292.35 309.185 293.115C309.185 293.88 309.185 294.644 309.185 295.409V298.85C309.185 300.762 309.856 302.195 311.197 303.151C311.867 303.916 312.203 304.681 312.203 305.445C312.538 306.21 312.706 306.975 312.706 307.739C312.706 308.695 312.203 309.746 311.197 310.893C310.191 311.849 310.024 312.996 310.694 314.334C311.029 314.717 311.532 315.099 312.203 315.481C312.873 316.82 312.538 317.871 311.197 318.636C310.191 319.591 309.856 320.452 310.191 321.216C310.191 322.363 310.024 323.224 309.688 323.797C309.353 324.179 308.85 324.657 308.18 325.231C307.844 325.804 307.174 326.282 306.168 326.664C304.492 327.429 303.318 328.576 302.648 330.105C301.977 330.87 301.642 331.539 301.642 332.113C301.642 332.495 302.815 332.591 305.162 332.399C305.833 332.399 306.336 332.495 306.671 332.686C307.341 332.686 307.844 332.686 308.18 332.686Z" fill="#7A3838"/>
</svg>
